<svg width="30" height="60" viewBox="0 0 30 60" fill="none" xmlns="http://www.w3.org/2000/svg">
<rect x="29.5" y="59.5" width="29" height="59" rx="14.5" transform="rotate(-180 29.5 59.5)" fill="#D9D9D9" fill-opacity="0.12" stroke="#89BCD9"/>
<path d="M15.5928 43.6431L20.8495 39.425C21.2031 39.1412 21.7064 39.1412 22.06 39.425C22.5425 39.8121 22.5425 40.5464 22.06 40.9335L15.1259 46.4978C14.7602 46.7912 14.2398 46.7912 13.8741 46.4978L6.93999 40.9335C6.45754 40.5464 6.45754 39.8121 6.93999 39.425C7.29361 39.1412 7.7969 39.1412 8.15052 39.425L13.4072 43.6431L13.4072 14C13.4072 13.4477 13.8549 13 14.4072 13H14.5928C15.1451 13 15.5928 13.4477 15.5928 14L15.5928 43.6431Z" fill="#89BCD9"/>
</svg>
