<svg width="45" height="47" viewBox="0 0 45 47" fill="none" xmlns="http://www.w3.org/2000/svg">
<path fill-rule="evenodd" clip-rule="evenodd" d="M27.2424 1H19.8742V12.1219C18.7742 11.8402 17.8639 11.7462 16.6691 11.7462C8.96899 11.7462 4 16.5745 4 24.0142C4 31.7357 8.68452 35.7561 17.6837 35.7655C20.6899 35.7655 23.4683 35.4846 27.2424 34.7707V1ZM17.6479 17.8321C18.5583 17.8321 19.2694 17.926 20.1324 18.2078V29.9225C19.0798 30.0634 18.416 30.1093 17.6006 30.1093C13.8265 30.1093 11.7687 27.9677 11.7687 24.089C11.7687 20.1052 13.9212 17.8321 17.6479 17.8321Z" fill="#89BCD9"/>
<path d="M39.2922 29.5614V12.653H31.9335V27.0438C31.9335 33.3939 31.6016 35.8081 30.5491 37.8925C29.5438 39.9309 27.9698 41.2665 24.7172 42.7781L31.5543 46C34.8069 44.3835 36.381 42.9199 37.5758 40.5988C38.856 38.1846 39.2922 35.3844 39.2922 29.5614Z" fill="#89BCD9"/>
<path d="M38.5591 1H31.191V8.48668H38.5591V1Z" fill="#89BCD9"/>
</svg>
