<svg width="36" height="45" viewBox="0 0 36 45" fill="none" xmlns="http://www.w3.org/2000/svg">
<path fill-rule="evenodd" clip-rule="evenodd" d="M23.2424 0H15.8742V11.1219C14.7742 10.8402 13.8639 10.7462 12.6691 10.7462C4.96899 10.7462 0 15.5745 0 23.0142C0 30.7357 4.68452 34.7561 13.6837 34.7655C16.6899 34.7655 19.4683 34.4846 23.2424 33.7707V0ZM13.6479 16.8321C14.5583 16.8321 15.2694 16.926 16.1324 17.2078V28.9225C15.0798 29.0634 14.416 29.1093 13.6006 29.1093C9.82652 29.1093 7.76866 26.9677 7.76866 23.089C7.76866 19.1052 9.92125 16.8321 13.6479 16.8321Z" fill="#89BCD9"/>
<path d="M35.2922 28.5614V11.653H27.9335V26.0438C27.9335 32.3939 27.6016 34.8081 26.5491 36.8925C25.5438 38.9309 23.9698 40.2665 20.7172 41.7781L27.5543 45C30.8069 43.3835 32.381 41.9199 33.5758 39.5988C34.856 37.1846 35.2922 34.3844 35.2922 28.5614Z" fill="#89BCD9"/>
<path d="M34.5591 0H27.191V7.48668H34.5591V0Z" fill="#89BCD9"/>
</svg>
