<svg width="134" height="48" viewBox="0 0 134 48" fill="none" xmlns="http://www.w3.org/2000/svg">
<rect x="0.5" y="0.5" width="133" height="47" rx="23.5" stroke="#89BCD9"/>
<path d="M31.872 15.986H33.618V27.326H40.224V29H31.872V15.986ZM46.1113 29.18C45.2593 29.18 44.5273 29.012 43.9153 28.676C43.3033 28.328 42.8293 27.86 42.4933 27.272C42.1693 26.672 42.0073 25.988 42.0073 25.22C42.0073 24.488 42.1933 23.822 42.5653 23.222C42.9373 22.622 43.4353 22.142 44.0593 21.782C44.6833 21.422 45.3793 21.242 46.1473 21.242C47.1313 21.242 47.9473 21.53 48.5953 22.106C49.2433 22.682 49.6813 23.474 49.9093 24.482L43.7713 26.642L43.3753 25.652L48.4153 23.816L48.0553 24.05C47.9113 23.654 47.6713 23.312 47.3353 23.024C46.9993 22.724 46.5613 22.574 46.0213 22.574C45.5653 22.574 45.1573 22.688 44.7973 22.916C44.4373 23.132 44.1553 23.432 43.9513 23.816C43.7473 24.2 43.6453 24.638 43.6453 25.13C43.6453 25.646 43.7533 26.102 43.9693 26.498C44.1853 26.882 44.4793 27.188 44.8513 27.416C45.2353 27.632 45.6673 27.74 46.1473 27.74C46.4713 27.74 46.7833 27.68 47.0833 27.56C47.3953 27.44 47.6833 27.284 47.9473 27.092L48.7213 28.334C48.3493 28.586 47.9293 28.79 47.4613 28.946C47.0053 29.102 46.5553 29.18 46.1113 29.18ZM52.7268 18.272H54.4008V21.584H56.4528V22.898H54.4008V29H52.7268V22.898H51.3588V21.584H52.7268V18.272ZM58.4936 18.848L57.6476 18.416C57.8996 18.176 58.0976 17.846 58.2416 17.426C58.3976 17.006 58.4336 16.586 58.3496 16.166L59.6816 16.04C59.7536 16.376 59.7416 16.73 59.6456 17.102C59.5496 17.462 59.3996 17.798 59.1956 18.11C58.9916 18.422 58.7576 18.668 58.4936 18.848ZM63.8858 29.144C63.3578 29.144 62.8418 29.054 62.3378 28.874C61.8458 28.682 61.4378 28.4 61.1138 28.028L61.8158 27.056C62.1278 27.356 62.4458 27.584 62.7698 27.74C63.1058 27.884 63.4358 27.956 63.7598 27.956C63.9998 27.956 64.2218 27.926 64.4258 27.866C64.6298 27.806 64.7918 27.71 64.9118 27.578C65.0438 27.434 65.1098 27.242 65.1098 27.002C65.1098 26.738 65.0198 26.528 64.8398 26.372C64.6718 26.216 64.4498 26.09 64.1738 25.994C63.9098 25.898 63.6278 25.808 63.3278 25.724C62.7158 25.52 62.2478 25.238 61.9238 24.878C61.5998 24.518 61.4378 24.08 61.4378 23.564C61.4378 23.168 61.5338 22.802 61.7258 22.466C61.9298 22.118 62.2238 21.836 62.6078 21.62C63.0038 21.404 63.4898 21.296 64.0658 21.296C64.5818 21.296 65.0438 21.362 65.4518 21.494C65.8598 21.614 66.2438 21.818 66.6038 22.106L65.9378 23.15C65.7218 22.922 65.4638 22.754 65.1638 22.646C64.8638 22.538 64.5938 22.478 64.3538 22.466C64.1498 22.454 63.9518 22.484 63.7598 22.556C63.5798 22.628 63.4298 22.73 63.3098 22.862C63.1898 22.994 63.1298 23.15 63.1298 23.33C63.1298 23.582 63.2138 23.786 63.3818 23.942C63.5498 24.098 63.7658 24.224 64.0298 24.32C64.3058 24.404 64.5758 24.494 64.8398 24.59C65.2118 24.698 65.5418 24.842 65.8298 25.022C66.1178 25.202 66.3458 25.424 66.5138 25.688C66.6938 25.952 66.7838 26.282 66.7838 26.678C66.7838 27.122 66.6758 27.536 66.4598 27.92C66.2558 28.292 65.9378 28.592 65.5058 28.82C65.0858 29.036 64.5458 29.144 63.8858 29.144ZM75.5432 18.272H77.2172V21.584H79.2692V22.898H77.2172V29H75.5432V22.898H74.1752V21.584H75.5432V18.272ZM84.388 29.18C83.692 29.18 83.056 29.03 82.48 28.73C81.916 28.43 81.466 27.992 81.13 27.416C80.806 26.828 80.644 26.114 80.644 25.274C80.644 24.446 80.818 23.732 81.166 23.132C81.514 22.52 81.976 22.052 82.552 21.728C83.14 21.404 83.782 21.242 84.478 21.242C85.174 21.242 85.762 21.404 86.242 21.728C86.722 22.04 87.088 22.412 87.34 22.844L87.232 23.132L87.394 21.548H88.942V29H87.268V27.056L87.448 27.488C87.4 27.608 87.292 27.764 87.124 27.956C86.968 28.136 86.752 28.322 86.476 28.514C86.212 28.706 85.906 28.868 85.558 29C85.21 29.12 84.82 29.18 84.388 29.18ZM84.838 27.794C85.258 27.794 85.636 27.716 85.972 27.56C86.308 27.404 86.584 27.188 86.8 26.912C87.028 26.624 87.184 26.282 87.268 25.886V24.428C87.172 24.068 87.004 23.756 86.764 23.492C86.524 23.216 86.236 23.006 85.9 22.862C85.564 22.706 85.192 22.628 84.784 22.628C84.34 22.628 83.932 22.736 83.56 22.952C83.188 23.168 82.888 23.468 82.66 23.852C82.444 24.236 82.336 24.686 82.336 25.202C82.336 25.682 82.45 26.12 82.678 26.516C82.906 26.912 83.212 27.224 83.596 27.452C83.98 27.68 84.394 27.794 84.838 27.794ZM91.8389 15.068H93.5129V29H91.8389V15.068ZM96.4092 29V15.068H98.0832V29H96.4092ZM99.8832 24.05L103.303 29H101.341L98.7672 24.986L99.8832 24.05ZM97.5612 26.624L97.3992 25.022L101.917 21.386L102.943 22.268L97.5612 26.624Z" fill="#89BCD9"/>
</svg>
