<svg width="45" height="47" viewBox="0 0 45 47" fill="none" xmlns="http://www.w3.org/2000/svg">
<mask id="mask0_2131_5601" style="mask-type:luminance" maskUnits="userSpaceOnUse" x="1" y="1" width="43" height="45">
<path d="M43.5 1.56641H1.5V45.4331H43.5V1.56641Z" fill="white"/>
</mask>
<g mask="url(#mask0_2131_5601)">
<path fill-rule="evenodd" clip-rule="evenodd" d="M6.06501 13.0095H22.4996V11.1022H12.4562V6.3343C12.4562 6.3343 12.4562 1.56641 22.4996 1.56641C32.5431 1.56641 32.5431 6.3343 32.5431 6.3343C32.5431 6.3343 32.6187 14.8255 32.5809 17.7318C32.5431 20.6388 30.7169 22.5453 27.9722 22.5453H17.0219C13.3696 22.5453 10.6308 25.4059 10.6308 29.2205V33.9884H6.06575C6.06575 33.9884 1.5 33.9892 1.5 23.4994C1.5 13.0095 6.06501 13.0095 6.06501 13.0095ZM18.8473 6.33508C18.8473 7.38816 18.0294 8.24239 17.0212 8.24239C16.0129 8.24239 15.195 7.38816 15.195 6.33508C15.195 5.28199 16.0129 4.42776 17.0212 4.42776C18.0294 4.42776 18.8473 5.28199 18.8473 6.33508Z" fill="#89BCD9"/>
<path fill-rule="evenodd" clip-rule="evenodd" d="M38.939 33.9906H22.5044V35.8979H32.5479V40.6658C32.5479 40.6658 32.5479 45.4337 22.5044 45.4337C12.4609 45.4337 12.4609 40.6658 12.4609 40.6658V29.2227C12.4609 26.3614 14.2871 24.4548 17.0259 24.4548H27.9829C31.6352 24.4548 34.374 21.5942 34.374 17.7796V13.0117H38.939C38.939 13.0117 43.504 13.0117 43.504 23.5016C43.504 33.9914 38.939 33.9914 38.939 33.9914V33.9906ZM29.8075 40.6666C29.8075 41.7197 28.9896 42.5739 27.9814 42.5739C26.9731 42.5739 26.1552 41.7197 26.1552 40.6666C26.1552 39.6135 26.9731 38.7593 27.9814 38.7593C28.9896 38.7593 29.8075 39.6135 29.8075 40.6666Z" fill="#89BCD9"/>
</g>
</svg>
