<svg width="53" height="45" viewBox="0 0 53 45" fill="none" xmlns="http://www.w3.org/2000/svg">
<path d="M2.17344 17.7796C4.91883 19.1082 20.2473 25.3469 22.6495 26.5022C25.0517 27.6575 26.7676 27.6575 29.8561 26.0978C32.8875 24.4804 47.3008 18.5305 50.0462 17.0864C51.4761 16.3355 52.1053 15.7578 52.1053 15.2379V9.98126C52.1053 9.46137 51.4189 8.99925 50.0462 8.47936L30.3137 0.738789C27.5683 -0.300988 26.4816 -0.243223 23.2786 0.912086C20.0185 2.06739 4.80444 8.13277 2.11624 9.17254C0.80074 9.69243 0.0571959 10.2123 0.0571959 10.7322H0V15.9889C0 16.5665 0.800739 17.1442 2.17344 17.7796ZM27.1108 18.5305L18.703 15.0069L30.7713 13.1584L27.1108 18.5305ZM45.3562 10.1546L38.2067 12.9851L37.4632 13.2739L30.3709 10.4434L38.2639 7.26628L45.3562 10.1546ZM24.4798 4.95567L23.3358 2.76058L26.9392 4.20472L30.3709 3.04941L29.4558 5.30226L32.9447 6.63086L28.4263 7.09299L27.3967 9.51914L25.7953 6.86193L20.5904 6.3998L24.4798 4.95567ZM15.5 8.01723C19.0462 8.01723 21.9631 9.17254 21.9631 10.5589C21.9631 11.9453 19.1034 13.1006 15.5 13.1006C11.9539 13.1006 9.03692 11.9453 9.03692 10.5589C9.03692 9.17254 11.9539 8.01723 15.5 8.01723ZM2.17344 26.791C4.91883 28.1196 20.2473 34.3583 22.6495 35.5136C25.0517 36.6689 26.7676 36.6689 29.8561 35.1092C32.8875 33.4918 47.3008 27.542 50.0462 26.0978C51.4761 25.3469 52.1053 24.7692 52.1053 24.2493V18.9927C52.1053 19.5126 51.4189 20.0324 50.1034 20.7834C47.358 22.2275 32.9447 28.2351 29.9133 29.7948C26.882 31.4122 25.1661 31.4122 22.7639 30.1992C20.3617 29.0439 4.97602 22.8052 2.23063 21.4766C0.857935 20.8412 0.0571959 20.2635 0.0571959 19.7436V25.058C2.17332e-07 25.5779 0.800739 26.0978 2.17344 26.791ZM2.17344 35.4558C4.91883 36.7844 20.2473 43.0231 22.6495 44.1784C25.0517 45.3337 26.7676 45.3337 29.8561 43.774C32.8875 42.1566 47.3008 36.2068 50.0462 34.7626C51.4761 34.0117 52.1053 33.434 52.1053 32.9141V27.6575C52.1053 28.1774 51.4189 28.6973 50.1034 29.4482C47.358 30.8923 32.9447 36.8999 29.9133 38.4596C26.882 40.077 25.1661 40.077 22.7639 38.864C20.3617 37.7087 4.97602 31.47 2.23063 30.1414C0.857935 29.506 0.0571959 28.9283 0.0571959 28.4084V33.7229C2.17332e-07 34.185 0.800739 34.7626 2.17344 35.4558Z" fill="#89BCD9"/>
</svg>
